<?xml version="1.0" encoding="utf-8"?>
<!-- Generator: Adobe Illustrator 24.0.1, SVG Export Plug-In . SVG Version: 6.00 Build 0)  -->
<svg version="1.1" id="Capa_1" xmlns="http://www.w3.org/2000/svg" xmlns:xlink="http://www.w3.org/1999/xlink" x="0px" y="0px"
	 viewBox="0 0 244.47 244.47" style="enable-background:new 0 0 244.47 244.47;" xml:space="preserve">
<style type="text/css">
	.st0{fill:#FFFFFF;}
	.st1{fill:#141414;}
	.st2{fill:#F4F4F4;}
	.st3{clip-path:url(#SVGID_2_);}
	.st4{fill:none;}
	.st5{opacity:0.73;fill:#020202;}
	.st6{fill:#D42D5D;}
	.st7{opacity:0.23;fill:#FFFFFF;}
	.st8{fill:#51C0C0;}
	.st9{fill:#D71F38;}
	.st10{fill:#EDE5DE;}
	.st11{fill:#1F3D3E;}
	.st12{fill:#189575;}
	.st13{fill:#203D3E;}
	.st14{opacity:0.3;}
	.st15{fill:#C2413B;}
	.st16{fill:#030000;}
	.st17{fill:#E5D7C5;}
	.st18{fill:#EBE3D6;}
	.st19{opacity:0.81;}
	.st20{fill:none;stroke:#6CB389;stroke-miterlimit:10;}
	.st21{fill:#6CB389;}
	.st22{fill:#EDDFCC;}
	.st23{fill:#353636;}
	.st24{fill:none;stroke:#D42D5D;stroke-width:2;stroke-miterlimit:10;}
	.st25{fill:#121212;}
	.st26{clip-path:url(#SVGID_10_);}
	.st27{opacity:0.44;fill:#020202;}
	.st28{fill:#E9204F;}
	.st29{opacity:0.63;}
	.st30{fill:#F9F7F8;}
	.st31{clip-path:url(#SVGID_16_);}
	.st32{fill:#108EAB;}
	.st33{fill:#6DABBF;}
	.st34{fill:#FDFEFE;}
	.st35{fill:none;stroke:#22A3AA;stroke-miterlimit:10;}
	.st36{fill:#22A3AA;}
	.st37{fill:none;stroke:#CE72A5;stroke-miterlimit:10;}
	.st38{fill:#CE72A5;}
	.st39{fill:none;stroke:#2E44A3;stroke-miterlimit:10;}
</style>
<g>
	<g>
		<rect x="167.9" y="105.31" class="st0" width="13.89" height="31.32"/>
	</g>
	<g>
		<g>
			<g>
				<path class="st28" d="M5.94,149.41H17.5c9.9,0,16.95,7.1,16.95,17.39c0,10.29-7.05,17.39-16.95,17.39H5.94V149.41z M17.3,178.95
					c7.4,0,11.41-4.9,11.41-12.15c0-7.25-4.02-12.15-11.41-12.15h-5.83v24.3H17.3z"/>
				<path class="st28" d="M49.52,149.41h5.53v34.78h-5.53V149.41z"/>
				<path class="st28" d="M70.63,166.8c0-10.73,8.13-17.88,17.88-17.88c4.46,0,10.14,1.52,13.81,7.2l-4.02,2.84
					c-2.55-3.53-6.22-4.75-9.7-4.75c-6.86,0-12.3,4.85-12.3,12.59c0,7.69,5.44,12.74,12.3,12.74c4.95,0,9.41-2.6,10.39-8.92h-9.06
					v-4.65h14.45c1.22,11.76-6.61,18.71-16.02,18.71C78.76,184.68,70.63,177.53,70.63,166.8z"/>
				<path class="st28" d="M120.05,149.41h5.53v34.78h-5.53V149.41z"/>
				<path class="st28" d="M149.19,154.55h-8.77v-5.14h23.07v5.14h-8.77v29.64h-5.54V154.55z"/>
				<path class="st28" d="M190.28,149.41l13.62,34.78h-5.98l-2.69-7.1h-15.58l-2.69,7.1h-5.98l13.57-34.78H190.28z M193.32,171.94
					l-5.88-15.53l-5.88,15.53H193.32z"/>
				<path class="st28" d="M218.05,149.41h5.54v29.64h14.35v5.14h-19.89V149.41z"/>
			</g>
		</g>
		<g>
			<rect x="100.11" y="56.1" class="st0" width="13.89" height="55.19"/>
		</g>
		<path class="st0" d="M121.45,122.6c-6.56,3.01-13.53,6.1-20.67,8.96v4.93h57.33V122.6H121.45z"/>
		<path class="st0" d="M201.25,53.99c-8.38,0-16.23,2.19-22.1,6.18c-6.63,4.5-10.49,11.13-11.12,18.83h-0.13v5.07
			c-6.58,0.32-12.59,1.18-17.38,2.29c-5.85,1.35-14.78,5.55-26.09,10.86c-22.42,10.52-53.01,24.78-75.46,24.53l-0.44-0.01
			c-14.88-0.21-26.93-12.38-26.93-27.32c0-15.07,12.26-27.32,27.32-27.32c15.07,0,27.32,12.26,27.32,27.32c0,0.05,0,0.1-0.01,0.16
			l-0.04-0.03c0,2.12-0.25,4.19-0.7,6.18c-0.01,0.05-0.02,0.09-0.03,0.14c-0.91,3.85-2.63,7.39-4.97,10.42
			c-0.3,0.39-0.61,0.77-0.94,1.14l18.37-6.23c0,0,0.68-0.62,0.79-1.01c0.94-3.49,1.42-7.11,1.42-10.76
			c0-22.72-18.49-41.21-41.21-41.21S7.7,71.71,7.7,94.43c0,22.5,18.12,40.84,40.53,41.2c0.52,0.01,1.04,0.02,1.57,0.02
			c25.43,0,57.2-14.91,80.52-25.85c10.15-4.76,18.91-8.87,23.33-9.9c17.46-4.05,53.85-5.03,66.57,20.26
			c0.78,1.55,1.47,3.2,2.04,4.88v10.85h13.89V81.22C236.17,63.35,218.6,53.99,201.25,53.99z M222.28,100.23
			c-11.12-10.33-26.18-14.77-40.49-15.95v-3.05c0-4.08,1.69-7.2,5.16-9.56c3.54-2.4,8.76-3.78,14.3-3.78
			c10.19,0,21.03,4.68,21.03,13.34V100.23z"/>
	</g>
</g>
</svg>
